<?xml version="1.0" encoding="UTF-8" standalone="no"?>
<!-- Created with Inkscape (http://www.inkscape.org/) -->

<svg
   xmlns:dc="http://purl.org/dc/elements/1.1/"
   xmlns:cc="http://creativecommons.org/ns#"
   xmlns:rdf="http://www.w3.org/1999/02/22-rdf-syntax-ns#"
   xmlns:svg="http://www.w3.org/2000/svg"
   xmlns="http://www.w3.org/2000/svg"
   xmlns:sodipodi="http://sodipodi.sourceforge.net/DTD/sodipodi-0.dtd"
   xmlns:inkscape="http://www.inkscape.org/namespaces/inkscape"
   sodipodi:docname="dexdis.svg"
   inkscape:version="0.48.4 r9939"
   version="1.1"
   id="svg2"
   height="280"
   width="280"
   inkscape:export-filename="/home/niclas/Dokumente/dexdis.png"
   inkscape:export-xdpi="180"
   inkscape:export-ydpi="180">
  <sodipodi:namedview
     id="base"
     pagecolor="#ffffff"
     bordercolor="#666666"
     borderopacity="1.0"
     inkscape:pageopacity="0.0"
     inkscape:pageshadow="2"
     inkscape:zoom="1"
     inkscape:cx="171.24102"
     inkscape:cy="50.991634"
     inkscape:document-units="px"
     inkscape:current-layer="g7295"
     showgrid="false"
     showguides="true"
     inkscape:guide-bbox="true"
     inkscape:window-width="1437"
     inkscape:window-height="797"
     inkscape:window-x="219"
     inkscape:window-y="70"
     inkscape:window-maximized="0"
     fit-margin-top="0"
     fit-margin-left="0"
     fit-margin-right="0"
     fit-margin-bottom="0">
    <inkscape:grid
       snapvisiblegridlinesonly="true"
       enabled="true"
       visible="true"
       empspacing="5"
       id="grid3009"
       type="xygrid"
       originx="-520px"
       originy="-1080px" />
  </sodipodi:namedview>
  <defs
     id="defs4" />
  <metadata
     id="metadata7">
    <rdf:RDF>
      <cc:Work
         rdf:about="">
        <dc:format>image/svg+xml</dc:format>
        <dc:type
           rdf:resource="http://purl.org/dc/dcmitype/StillImage" />
        <dc:title />
      </cc:Work>
    </rdf:RDF>
  </metadata>
  <g
     id="layer1"
     inkscape:groupmode="layer"
     inkscape:label="Ebene 1"
     transform="translate(-260,-232.36218)">
    <g
       id="g7295">
      <g
         id="g2994"
         transform="translate(0,-20)">
        <path
           sodipodi:nodetypes="ccccc"
           inkscape:connector-curvature="0"
           id="path3117-6"
           d="m 400,512.36218 140,-60 0,-45 -140,60 z"
           style="fill:#c73e19;fill-opacity:1;stroke:none" />
        <path
           sodipodi:nodetypes="ccccc"
           inkscape:connector-curvature="0"
           id="path3115-2"
           d="m 260,407.36218 0,45 140,60 0,-45 z"
           style="fill:#e34f26;fill-opacity:1;stroke:none" />
        <path
           sodipodi:nodetypes="ccccc"
           inkscape:connector-curvature="0"
           id="path3115-3"
           d="m 260,367.36218 0,45 140,60 0,-45 z"
           style="fill:#0091be;fill-opacity:1;stroke:none" />
        <path
           sodipodi:nodetypes="ccccc"
           inkscape:connector-curvature="0"
           id="path3117-3"
           d="m 400,472.36218 140,-60 0,-45 -140,60 z"
           style="fill:#007296;fill-opacity:1;stroke:none" />
        <path
           inkscape:connector-curvature="0"
           id="path3117"
           d="m 535,332.36218 -135,55 0,45 140,-60 0,-40"
           style="fill:#c73e19;fill-opacity:1;stroke:none"
           sodipodi:nodetypes="ccccc" />
        <path
           inkscape:connector-curvature="0"
           id="path3115"
           d="m 260,332.36218 0,40 140,60 0,-45 -135,-55"
           style="fill:#e34d25;fill-opacity:1;stroke:none"
           sodipodi:nodetypes="ccccc" />
        <path
           sodipodi:nodetypes="ccccc"
           inkscape:connector-curvature="0"
           id="path3095"
           d="m 260,332.36218 140,60 140,-60 -140,-60 z"
           style="fill:#ef652a;fill-opacity:1;stroke:none" />
        <g
           id="g7269">
          <path
             sodipodi:nodetypes="cccccccccccssscccccccccccccsscsccsccssss"
             inkscape:connector-curvature="0"
             d="m 327.125,326.3125 0,2.5 c 1.10662,0 1.10587,-2.5 0,-2.5 z m 41.375,2.625 -0.0312,3.15625 0.0312,0 c -0.0134,-0.84622 0.17939,-1.69625 0.625,-2.5 L 369.09375,329 z m 63.3125,-28.1875 -16.40625,7.03125 c -25.32303,-5.07611 -53.96689,-3.58562 -71.8125,4.0625 -24.27553,10.40381 -21.42646,28.60741 6.46875,40.5625 27.89523,11.95509 70.38072,13.18506 94.65625,2.78125 10.92388,-4.68166 16.43902,-11.08379 16.375,-17.84375 -10e-4,-0.1421 0.006,-0.2951 0,-0.4375 l 0,-2.46875 -0.375,0 c -0.81846,-3.35544 -2.96976,-6.75981 -6.53125,-10.03125 l 16.40625,-7.03125 -0.0147,-2.98438 -4.57897,-0.0158 0,1.03125 z m 1.90625,12.03125 8.75,3.75 -43.96875,18.875 c -2.09746,0.8989 -5.74124,0.7984 -8.1875,-0.25 -2.4068,-1.03149 -2.69435,-2.6176 -0.5625,-3.53125 z m -47.46875,0.5625 c 4.76738,-0.0678 9.65531,0.18417 14.5,0.75 l -25.96875,11.125 c -9.28383,3.97879 -8.1925,10.97999 2.5,15.5625 10.65306,4.56559 26.93178,5.05603 36.25,1.0625 L 439.5,330.71875 c 4.25925,6.62941 0.84359,13.50899 -9.78125,18.0625 -17.08914,7.32392 -46.92174,6.43533 -66.53125,-1.96875 -19.60952,-8.40407 -21.65165,-21.20733 -4.5625,-28.53125 7.28093,-3.1204 17.13676,-4.78842 27.625,-4.9375 z"
             style="fill:#d3d3d3;stroke:none"
             id="path7229" />
          <path
             sodipodi:nodetypes="cccssscssccccssscccccssscc"
             id="path3041-8-2"
             d="m 429.7122,345.7668 0,0 c 10.62484,-4.55351 14.04277,-11.42941 9.78352,-18.05882 l -25.96038,11.12587 c -9.31822,3.99353 -25.60255,3.49848 -36.25561,-1.06711 -10.6925,-4.58251 -11.77377,-11.55934 -2.48994,-15.53813 l 25.96038,-11.12587 c -15.50301,-1.81066 -31.54678,-0.34583 -42.13723,4.19294 -17.08915,7.32392 -15.04041,20.10885 4.56911,28.51292 19.60951,8.40408 49.44101,9.28212 66.53015,1.9582 m 12.80279,-32.23791 -0.0344,0.0147 -8.75918,-3.75394 -43.9779,18.84768 c -2.13185,0.91365 -1.84391,2.4812 0.56289,3.51269 2.44626,1.0484 6.09882,1.14015 8.19628,0.24125 l 44.01229,-18.86241 m -10.68622,-15.77937 -0.0344,0.0147 38.78465,16.62215 -16.40109,7.02919 c 11.84936,10.88437 8.37306,23.12872 -9.47255,30.77684 -24.27553,10.40381 -66.73372,9.15412 -94.62895,-2.80097 -27.89521,-11.95509 -30.77168,-30.13455 -6.49615,-40.53836 17.84561,-7.64812 46.48961,-9.13577 71.81264,-4.05966 l 16.43584,-7.04393"
             inkscape:connector-curvature="0"
             style="fill:#ffffff;fill-opacity:1" />
        </g>
      </g>
    </g>
  </g>
</svg>
